<?xml version="1.0" encoding="UTF-8"?>
<svg version="1.1" xmlns="http://www.w3.org/2000/svg" width="512" height="512">
<path d="M0 0 C2.95457267 1.58831377 5.86094762 3.24810691 8.75219727 4.94873047 C11.04637105 6.29345483 13.36076792 7.59588266 15.68237305 8.89257812 C17.19250256 9.74886359 18.7016495 10.60688468 20.2097168 11.46679688 C20.90403809 11.85786621 21.59835937 12.24893555 22.3137207 12.65185547 C28.6710901 16.36949744 33.59508286 19.81449948 35.60505581 27.1661272 C36.40140661 31.20011985 36.28131785 35.2480742 36.24926758 39.34545898 C36.24955963 40.3315918 36.24985168 41.31772461 36.25015259 42.33374023 C36.24876557 45.57479831 36.23323389 48.81562299 36.2175293 52.05664062 C36.21379694 54.31107966 36.21095102 56.56552031 36.20895386 58.81996155 C36.20133499 64.73992427 36.18170145 70.65978812 36.1595459 76.57971191 C36.13904986 82.62604434 36.1299441 88.67239281 36.11987305 94.71875 C36.09845395 106.57230895 36.06433906 118.42579468 36.0222168 130.27929688 C36.68021869 130.2756097 37.33822058 130.27192253 38.01616192 130.26812363 C54.07685653 130.17952575 70.13746534 130.11346784 86.19834423 130.07204819 C93.96548972 130.05148207 101.73247141 130.02347641 109.49951172 129.97753906 C116.27460308 129.93748783 123.04957572 129.91182089 129.82478219 129.9029429 C133.40742314 129.89775882 136.98972466 129.88570124 140.57225609 129.85637665 C144.58591713 129.823794 148.59899986 129.82334906 152.61279297 129.82519531 C153.78165039 129.81081421 154.95050781 129.79643311 156.15478516 129.78161621 C168.03093324 129.8403571 178.71649991 132.72868573 188.0222168 140.27929688 C188.64741211 140.78074219 189.27260742 141.2821875 189.91674805 141.79882812 C197.91399674 148.95976323 201.60503687 158.86490218 203.0222168 169.27929688 C203.29424123 174.43265401 203.27598885 179.57663461 203.24926758 184.73486328 C203.24870244 186.27326449 203.24902203 187.81166624 203.25015259 189.35006714 C203.25072308 193.49815108 203.23901821 197.64611781 203.22500467 201.79417467 C203.21244645 206.13966295 203.21132282 210.48515433 203.20895386 214.83065796 C203.20275399 223.04685507 203.1863635 231.26299855 203.16625488 239.47917211 C203.14384925 248.83834778 203.13289075 258.19752609 203.12286401 267.55672193 C203.10199586 286.79761058 203.06684909 306.0384494 203.0222168 325.27929688 C203.64303635 325.33757156 204.2638559 325.39584625 204.90348816 325.45588684 C206.12277763 325.57887398 206.12277763 325.57887398 207.36669922 325.7043457 C208.57636604 325.82269524 208.57636604 325.82269524 209.81047058 325.94343567 C214.70716581 326.68701554 218.2929325 330.20015737 221.3737793 333.90429688 C225.96807283 340.51479117 225.27700497 347.46135545 225.31738281 355.1652832 C225.32887209 356.69076841 225.34927562 358.21621439 225.37890625 359.74145508 C225.71101048 376.84575072 225.71101048 376.84575072 219.27612305 384.30273438 C218.71795898 384.74875 218.15979492 385.19476563 217.5847168 385.65429688 C217.02913086 386.11578125 216.47354492 386.57726562 215.90112305 387.05273438 C211.32984954 390.03689213 207.40623779 390.53044394 201.99496746 390.53656578 C201.29598505 390.54007186 200.59700265 390.54357793 199.87683895 390.54719025 C197.52903486 390.55651186 195.1814784 390.55157902 192.83366394 390.54672241 C191.1356304 390.55045829 189.43759857 390.55505956 187.73956949 390.56045306 C183.06884306 390.57270619 178.39818814 390.57241987 173.7274493 390.57006431 C168.69187936 390.56965672 163.65633253 390.58068967 158.62077332 390.59017944 C148.75341697 390.60680305 138.88608452 390.6122896 129.01871534 390.6134042 C120.99925741 390.61435402 112.97980738 390.61846102 104.96035194 390.62480545 C82.23135228 390.64242151 59.50237152 390.65164374 36.77336498 390.6501445 C35.54765161 390.65006459 34.32193824 390.64998468 33.05908203 390.64990234 C31.83187474 390.64982058 30.60466744 390.64973882 29.34027205 390.64965458 C9.44846001 390.64884156 -10.44327633 390.6679824 -30.33506647 390.69617908 C-50.75233286 390.72489261 -71.1695623 390.73872022 -91.58684939 390.73699152 C-103.05261505 390.7363271 -114.51830135 390.74184246 -125.98404884 390.76334763 C-135.74583186 390.78153926 -145.50749955 390.78592334 -155.26929215 390.77232878 C-160.25052918 390.76578898 -165.23154482 390.76571847 -170.21276093 390.78303528 C-174.77317476 390.79872624 -179.33319093 390.79594311 -183.89359482 390.77846701 C-185.5429729 390.77538834 -187.19238035 390.77906208 -188.84172378 390.79018717 C-206.13354228 390.89909421 -206.13354228 390.89909421 -213.0012207 384.34960938 C-213.44723633 383.70765625 -213.89325195 383.06570313 -214.3527832 382.40429688 C-214.81426758 381.7675 -215.27575195 381.13070313 -215.7512207 380.47460938 C-219.70141153 373.40452261 -219.31066268 366.33734949 -219.2902832 358.46679688 C-219.31445312 356.61731445 -219.31445312 356.61731445 -219.33911133 354.73046875 C-219.3433565 346.77925805 -218.9955342 339.68640847 -214.3996582 332.97460938 C-209.0494377 327.94940227 -204.56301226 325.05924757 -196.9777832 325.27929688 C-196.97962679 324.50183735 -196.98147038 323.72437782 -196.98336983 322.92335892 C-197.02762407 303.96720753 -197.06067628 285.01106652 -197.08140755 266.05487442 C-197.09170064 256.88763824 -197.1057232 247.72043664 -197.12866211 238.55322266 C-197.14865639 230.55894851 -197.16151392 222.56469941 -197.16596019 214.57040095 C-197.16855738 210.34124698 -197.17462053 206.11216466 -197.18924332 201.88303375 C-197.20292284 197.89399939 -197.20698511 193.9050655 -197.20399857 189.9160099 C-197.20454413 188.4600679 -197.20845935 187.00412217 -197.21619415 185.54820061 C-197.29822196 169.2967486 -195.6993814 154.39742656 -184.0090332 142.09179688 C-172.6869518 131.98901655 -160.48043813 129.80258332 -145.68188477 129.9387207 C-144.41216827 129.93828262 -143.14245178 129.93784454 -141.83425903 129.93739319 C-138.39279891 129.93654148 -134.95166015 129.95403126 -131.51027393 129.97511506 C-127.89885451 129.99402151 -124.28742563 129.9956432 -120.67596436 129.99919128 C-113.85517856 130.00847112 -107.03453908 130.03302909 -100.21381736 130.06323975 C-92.44103539 130.09691121 -84.66824599 130.11330163 -76.89540911 130.12832606 C-60.92278276 130.1595829 -44.95030194 130.21226321 -28.9777832 130.27929688 C-28.98469665 129.35495598 -28.98469665 129.35495598 -28.99174976 128.41194153 C-29.10232149 113.3961772 -29.1849844 98.38053835 -29.23684406 83.36447144 C-29.26259169 76.10269521 -29.29767564 68.84119127 -29.35498047 61.57958984 C-29.40492174 55.24805545 -29.43709924 48.91671831 -29.44822568 42.58499241 C-29.45472678 39.23424069 -29.47257933 35.88449848 -29.50643349 32.53384399 C-29.54277989 28.78719768 -29.54772586 25.0417164 -29.54541016 21.29492188 C-29.57237473 19.64090614 -29.57237473 19.64090614 -29.59988403 17.95347595 C-29.55455628 11.16676626 -28.5275606 6.46502142 -23.9777832 1.27929688 C-16.68471423 -5.08719128 -8.18982345 -4.1308362 0 0 Z M-5.9777832 25.27929688 C-7.16165128 34.32279617 -7.16165128 34.32279617 -5.9777832 43.27929688 C-2.15567037 47.3650037 1.80321085 49.22351024 7.0222168 51.27929688 C7.98772461 51.67117187 8.95323242 52.06304687 9.94799805 52.46679688 C10.63249023 52.73492187 11.31698242 53.00304687 12.0222168 53.27929688 C13.38245801 44.2230275 13.38245801 44.2230275 12.0222168 35.27929688 C7.63199323 29.97670174 0.36913743 27.39493709 -5.9777832 25.27929688 Z M-4.9777832 61.27929688 C-6.9678741 75.17808564 -6.9678741 75.17808564 -3.76635742 88.21630859 C-0.3674069 91.37639649 3.64400762 92.83575689 8.0222168 94.27929688 C9.36383339 94.92913312 10.69917054 95.59244111 12.0222168 96.27929688 C14.22996455 81.70901355 14.22996455 81.70901355 10.58227539 68.16455078 C6.50051496 64.55992167 0.56986016 61.27929688 -4.9777832 61.27929688 Z M-4.9777832 103.27929688 C-4.9777832 112.18929687 -4.9777832 121.09929687 -4.9777832 130.27929688 C0.6322168 130.27929688 6.2422168 130.27929688 12.0222168 130.27929688 C13.34419569 120.20238109 13.34419569 120.20238109 10.29956055 110.95507812 C7.91597152 109.39736386 5.66507873 108.34169734 3.0222168 107.27929688 C0.3822168 105.95929688 -2.2577832 104.63929688 -4.9777832 103.27929688 Z M-168.3527832 160.77929688 C-171.35561569 165.39903916 -172.22410394 168.18401609 -172.1730957 173.79492188 C-172.16665039 175.0453125 -172.16020508 176.29570312 -172.15356445 177.58398438 C-172.13680664 178.8859375 -172.12004883 180.18789063 -172.1027832 181.52929688 C-172.09375977 182.84671875 -172.08473633 184.16414063 -172.07543945 185.52148438 C-172.05186853 188.77427149 -172.01896343 192.02669276 -171.9777832 195.27929688 C-170.75998169 195.86481323 -170.75998169 195.86481323 -169.51757812 196.4621582 C-168.44612549 196.98575928 -167.37467285 197.50936035 -166.27075195 198.04882812 C-165.21138428 198.56292236 -164.1520166 199.0770166 -163.06054688 199.60668945 C-154.12091748 204.45704195 -148.18676271 212.44117228 -141.9777832 220.27929688 C-136.57282905 227.22506798 -136.57282905 227.22506798 -128.9777832 231.27929688 C-122.71704368 231.93536239 -117.25885501 232.03472571 -111.9777832 228.27929688 C-106.70432426 223.64975502 -102.36908276 218.36656637 -98.04418945 212.86523438 C-88.33058035 200.70945133 -78.78841777 191.17618284 -62.7277832 189.34179688 C-51.25907476 188.80145725 -41.24179058 191.5011591 -31.9777832 198.27929688 C-31.20305664 198.81039062 -30.42833008 199.34148437 -29.63012695 199.88867188 C-25.80996033 203.33188539 -23.06112639 207.40455408 -20.1027832 211.59179688 C-12.49128751 223.32359161 -12.49128751 223.32359161 -0.9777832 230.27929688 C4.69620351 230.9990061 10.38421581 231.11847612 15.2878418 227.79101562 C23.50918008 220.62511942 30.45779761 211.39893146 36.9597168 202.68164062 C43.80965308 194.70302166 54.14695358 190.76395128 64.3347168 189.46679688 C76.64221764 188.65890227 87.11396083 192.00969326 96.6472168 199.77929688 C102.70547335 205.41510765 107.43268581 212.20166676 112.22583008 218.91601562 C116.72509326 225.08950127 120.23090542 229.38285797 128.04956055 230.84570312 C135.11520674 230.83621904 139.80907806 230.20599942 145.0222168 225.27929688 C149.78798347 220.2059547 154.17811423 214.80212642 158.54858398 209.38867188 C161.42939903 205.89855985 164.01725332 203.2628342 168.0222168 201.02929688 C168.8265918 200.57039063 169.6309668 200.11148438 170.4597168 199.63867188 C173.29072254 198.13685785 176.14928223 196.69906105 179.0222168 195.27929688 C179.13925126 191.11286991 179.20974781 186.94687097 179.2722168 182.77929688 C179.32249023 181.01972656 179.32249023 181.01972656 179.3737793 179.22460938 C179.45981751 171.56720847 179.07568108 165.62064328 173.609375 159.76611328 C168.92294353 155.58021821 164.59778056 154.03101117 158.40053082 154.02202797 C157.27385579 154.01557908 156.14718076 154.00913018 154.98636407 154.00248587 C153.75349988 154.00558308 152.52063569 154.00868028 151.25041199 154.01187134 C149.93688053 154.00734022 148.62334907 154.00280911 147.27001363 153.99814069 C143.62542325 153.98590395 139.98092461 153.98617194 136.33631837 153.98852944 C132.4050501 153.98893744 128.47381131 153.97790009 124.54255676 153.96841431 C116.84091149 153.95179959 109.13929684 153.94630455 101.43763515 153.94518955 C95.17732985 153.94423929 88.91703466 153.9401301 82.65673256 153.9337883 C64.90810933 153.91617453 47.15951029 153.90694963 29.41087826 153.90844925 C27.97555261 153.90856912 27.97555261 153.90856912 26.51123047 153.90869141 C25.07415252 153.90881405 25.07415252 153.90881405 23.60804269 153.90893917 C8.08112686 153.90975208 -7.44569198 153.89061335 -22.97257975 153.86241467 C-38.91499855 153.83368978 -54.85737003 153.81987416 -70.79981536 153.82160223 C-79.7504792 153.82226627 -88.70104136 153.81676773 -97.6516819 153.79524612 C-105.2725034 153.77703951 -112.89317712 153.77268268 -120.51401094 153.78626497 C-124.40162679 153.79279732 -128.28895909 153.79290246 -132.176548 153.77555847 C-136.39292267 153.75694126 -140.60864015 153.76937522 -144.82502747 153.78482056 C-146.05119949 153.77453343 -147.27737151 153.7642463 -148.54070026 153.75364745 C-156.62456255 153.81918484 -162.54321803 154.66396511 -168.3527832 160.77929688 Z M-70.9309082 216.77539062 C-76.35868684 221.90530336 -80.82658493 228.00116021 -85.36450195 233.91210938 C-93.78823033 244.80733966 -102.84769567 252.10445218 -116.6965332 254.81054688 C-129.56797482 256.43797053 -141.09823415 253.00120844 -151.55981445 245.40429688 C-154.11289333 243.16055712 -156.12654845 240.82364325 -158.2277832 238.15429688 C-162.61114264 232.68980684 -167.0925071 227.30633322 -171.9777832 222.27929688 C-172.3077832 222.27929688 -172.6377832 222.27929688 -172.9777832 222.27929688 C-172.9777832 256.26929688 -172.9777832 290.25929688 -172.9777832 325.27929688 C-56.8177832 325.27929688 59.3422168 325.27929688 179.0222168 325.27929688 C179.0222168 291.28929687 179.0222168 257.29929687 179.0222168 222.27929688 C175.26226124 225.28726132 172.96292044 227.36070374 170.1472168 231.02929688 C169.4562793 231.90585937 168.7653418 232.78242188 168.0534668 233.68554688 C166.79957348 235.28667218 165.54888729 236.89032224 164.3034668 238.49804688 C159.94151827 243.84760639 155.18409793 247.19835631 149.0222168 250.27929688 C148.35963867 250.62089844 147.69706055 250.9625 147.0144043 251.31445312 C136.83940675 255.60391287 122.68537236 254.56115024 112.6315918 250.60351562 C101.44223955 244.92508687 94.41624291 234.97848324 87.13549805 225.11132812 C82.21268194 218.51420858 78.67015148 214.57038984 70.6472168 212.34179688 C63.57902733 212.21993154 58.24643931 214.57589409 53.0222168 219.27929688 C51.25087959 221.42035244 49.56134337 223.55964928 47.8972168 225.77929688 C38.42561373 238.03439145 29.69679968 249.05921687 14.0222168 253.27929688 C0.32319129 254.73044438 -11.56557244 253.08989224 -22.94262695 244.94335938 C-27.70171493 241.05205136 -31.23171923 236.3027205 -34.8684082 231.38476562 C-35.39007568 230.68077637 -35.91174316 229.97678711 -36.44921875 229.25146484 C-37.48799073 227.84146377 -38.51851601 226.42533924 -39.53955078 225.00244141 C-43.58079555 219.47259893 -47.72308221 214.18570503 -54.7902832 212.77929688 C-61.04647156 211.82257842 -65.87929464 212.90585463 -70.9309082 216.77539062 Z M-194.9777832 349.27929688 C-194.9777832 354.88929688 -194.9777832 360.49929688 -194.9777832 366.27929688 C-64.2977832 366.27929688 66.3822168 366.27929688 201.0222168 366.27929688 C201.0222168 360.66929687 201.0222168 355.05929687 201.0222168 349.27929688 C70.3422168 349.27929688 -60.3377832 349.27929688 -194.9777832 349.27929688 Z " fill="#000000" transform="translate(250.977783203125,104.720703125)"/>
<path d="M0 0 C9.90038633 5.69706441 16.29327816 17.34405673 19.75 27.875 C23.3775667 42.30509959 21.53797257 57.20580137 14.3125 70.1875 C8.05749066 79.79619265 0.7504799 87.53375535 -10 92 C-14.41820274 92.906298 -17.67326271 92.49031596 -21.875 90.9375 C-24.84845636 88.22640744 -25.84726031 85.84246562 -27 82 C-27 77.79565769 -26.59374491 75.76073566 -24 72.4375 C-21.55728692 70.45279562 -19.22671365 68.88986169 -16.5625 67.25 C-9.81110986 62.88410104 -6.09847989 56.68484416 -4 49 C-3.68704255 45.70670196 -3.68704255 45.70670196 -3.75 42.375 C-3.74484375 41.26898438 -3.7396875 40.16296875 -3.734375 39.0234375 C-3.98951615 36.11933089 -4.49098001 34.45515157 -6 32 C-6.59425781 32.42410156 -7.18851562 32.84820312 -7.80078125 33.28515625 C-8.62964844 33.87167969 -9.45851563 34.45820312 -10.3125 35.0625 C-11.21742188 35.70574219 -12.12234375 36.34898438 -13.0546875 37.01171875 C-16 39 -16 39 -19.0078125 40.70703125 C-25.4605434 44.31073735 -25.4605434 44.31073735 -29.3125 50.375 C-30.70394965 56.306435 -28.86852884 61.39441349 -27 67 C-26.6118437 71.1144568 -26.75918758 73.49911017 -28.5625 77.25 C-31.56172186 80.63373748 -33.62851435 81.83427049 -38 83 C-42.1738453 82.81276208 -45.08173797 81.79072564 -48.25 79.0625 C-54.58708897 67.97259431 -55.91799363 56.15895833 -53.3046875 43.6796875 C-49.37360106 31.82035949 -41.3860344 24.48132217 -30.8125 18.4375 C-24.12937127 14.46165721 -19.41566979 9.5139042 -14.36328125 3.66015625 C-10.29344272 -0.92093472 -5.88150027 -1.03486808 0 0 Z " fill="#000000" transform="translate(295,15)"/>
</svg>
